<svg width="900" height="1100" viewBox="0 0 900 1100" fill="none" xmlns="http://www.w3.org/2000/svg" role="img" aria-labelledby="title desc">
<title id="title">About portrait placeholder</title>
<desc id="desc">Illustrated portrait placeholder for the trader biography</desc>
<rect width="900" height="1100" fill="#0f172a"/>
<rect x="60" y="60" width="780" height="980" rx="40" fill="#111827" stroke="#1e293b" stroke-width="4"/>
<circle cx="450" cy="260" r="140" fill="#1f2937" stroke="#38bdf8" stroke-width="6"/>
<path d="M320 700 C360 520 540 520 580 700 L620 880 H280 Z" fill="#0ea5e9" fill-opacity="0.12" stroke="#38bdf8" stroke-width="4"/>
<path d="M310 860 C360 760 540 760 590 860" stroke="#38bdf8" stroke-width="4"/>
<path d="M390 430 C420 400 480 400 510 430" stroke="#f8fafc" stroke-width="6" stroke-linecap="round"/>
<circle cx="390" cy="320" r="18" fill="#f8fafc"/>
<circle cx="510" cy="320" r="18" fill="#f8fafc"/>
<path d="M360 280 C380 230 520 230 540 280" stroke="#38bdf8" stroke-width="6"/>
<path d="M330 360 C360 280 540 280 570 360" stroke="#0ea5e9" stroke-width="5"/>
<text x="450" y="1030" text-anchor="middle" fill="#e2e8f0" font-family="'Inter', sans-serif" font-size="32" letter-spacing="1">Upload your about portrait to replace this placeholder.</text>
</svg>
